nColumns=28
nRows=35
DataType=double
version=3
OpenSimVersion=4.1
endheader
time	ground_force_1_vx	ground_force_1_vy	ground_force_1_vz	ground_force_1_px	ground_force_1_py	ground_force_1_pz	ground_force_1_mx	ground_force_1_my	ground_force_1_mz	ground_force_2_vx	ground_force_2_vy	ground_force_2_vz	ground_force_2_px	ground_force_2_py	ground_force_2_pz	ground_force_2_mx	ground_force_2_my	ground_force_2_mz	ground_force_3_vx	ground_force_3_vy	ground_force_3_vz	ground_force_3_px	ground_force_3_py	ground_force_3_pz	ground_force_3_mx	ground_force_3_my	ground_force_3_mz
0	3.66369	396.638	-38.1756	-0.208034	0.006	-0.448991	0	-0.896242	0	-2.86211	353.224	42.1261	-0.189645	0.006	-0.828941	0	1.70763	0	0	0	0	0.00020805	0	-0.000117561	0	0	0
0.01	3.55189	395.801	-38.1052	-0.20792	0.006	-0.448817	0	-0.889393	0	-2.92191	354.349	42.3205	-0.189539	0.006	-0.828939	0	1.70004	0	0	0	0	0.00020805	0	-0.000117561	0	0	0
0.02	3.42158	394.68	-38.0088	-0.207778	0.006	-0.448637	0	-0.88324	0	-2.98106	355.771	42.5907	-0.189401	0.006	-0.828966	0	1.69029	0	0	0	0	0.00020805	0	-0.000117561	0	0	0
0.03	3.27209	393.236	-37.8815	-0.207606	0.006	-0.448455	0	-0.878013	0	-3.03715	357.523	42.9489	-0.189226	0.006	-0.829027	0	1.6781	0	0	0	0	0.00020805	0	-0.000117561	0	0	0
0.04	3.10293	391.431	-37.718	-0.207403	0.006	-0.448275	0	-0.873764	0	-3.08849	359.637	43.4072	-0.18901	0.006	-0.829126	0	1.66302	0	0	0	0	0.00020805	0	-0.000117561	0	0	0
0.05	2.91429	389.232	-37.5131	-0.207169	0.006	-0.448098	0	-0.870449	0	-3.13447	362.148	43.9776	-0.18875	0.006	-0.829263	0	1.64444	0	0	0	0	0.00020805	0	-0.000117561	0	0	0
0.06	2.70717	386.608	-37.2614	-0.206907	0.006	-0.447927	0	-0.867923	0	-3.17589	365.082	44.6709	-0.188442	0.006	-0.829443	0	1.62166	0	0	0	0	0.00020805	0	-0.000117561	0	0	0
0.07	2.48401	383.531	-36.9575	-0.206619	0.006	-0.447763	0	-0.865946	0	-3.21478	368.461	45.4956	-0.188084	0.006	-0.829665	0	1.59392	0	0	0	0	0.00020805	0	-0.000117561	0	0	0
0.08	2.24974	379.986	-36.5965	-0.206313	0.006	-0.447611	0	-0.864272	0	-3.25416	372.294	46.457	-0.187675	0.006	-0.82993	0	1.56054	0	0	0	0	0.00020805	0	-0.000117561	0	0	0
0.09	2.012	375.968	-36.1746	-0.205997	0.006	-0.447474	0	-0.862701	0	-3.29807	376.578	47.5563	-0.187212	0.006	-0.830238	0	1.52088	0	0	0	0	0.00020805	0	-0.000117561	0	0	0
0.1	1.78088	371.49	-35.6895	-0.205684	0.006	-0.447357	0	-0.861065	0	-3.35132	381.286	48.7894	-0.186692	0.006	-0.830586	0	1.47442	0	0	0	0	0.00020805	0	-0.000117561	0	0	0
0.11	1.56825	366.58	-35.142	-0.205392	0.006	-0.447264	0	-0.859148	0	-3.4189	386.374	50.1462	-0.186113	0.006	-0.830971	0	1.42084	0	0	0	0	0.00020805	0	-0.000117561	0	0	0
0.12	1.38712	361.283	-34.5348	-0.205141	0.006	-0.447203	0	-0.856622	0	-3.50558	391.777	51.6114	-0.185473	0.006	-0.831387	0	1.36018	0	0	0	0	0.00020805	0	-0.000117561	0	0	0
0.13	1.25058	355.651	-33.8718	-0.204952	0.006	-0.447181	0	-0.853073	0	-3.61531	397.418	53.1648	-0.184773	0.006	-0.831829	0	1.29286	0	0	0	0	0.00020805	0	-0.000117561	0	0	0
0.14	1.17027	349.748	-33.1573	-0.204849	0.006	-0.447207	0	-0.848184	0	-3.75029	403.211	54.7825	-0.184016	0.006	-0.832289	0	1.2197	0	0	0	0	0.00020805	0	-0.000117561	0	0	0
0.15	1.15541	343.64	-32.3964	-0.204855	0.006	-0.447288	0	-0.841789	0	-3.91053	409.067	56.4388	-0.183209	0.006	-0.832761	0	1.14189	0	0	0	0	0.00020805	0	-0.000117561	0	0	0
0.16	1.21197	337.396	-31.5945	-0.204986	0.006	-0.44743	0	-0.833831	0	-4.09404	414.903	58.1091	-0.18236	0.006	-0.833238	0	1.06084	0	0	0	0	0.00020805	0	-0.000117561	0	0	0
0.17	1.34205	331.083	-30.758	-0.205259	0.006	-0.447639	0	-0.824261	0	-4.29726	420.643	59.7708	-0.181481	0.006	-0.833711	0	0.9781	0	0	0	0	0.00020805	0	-0.000117561	0	0	0
0.18	1.54396	324.767	-29.8943	-0.205682	0.006	-0.447917	0	-0.813017	0	-4.5154	426.22	61.404	-0.180586	0.006	-0.834175	0	0.895343	0	0	0	0	0.00020805	0	-0.000117561	0	0	0
0.19	1.81228	318.512	-29.0118	-0.206259	0.006	-0.448264	0	-0.800008	0	-4.74269	431.573	62.9912	-0.179687	0.006	-0.834623	0	0.814277	0	0	0	0	0.00020805	0	-0.000117561	0	0	0
0.2	2.13865	312.377	-28.1195	-0.206986	0.006	-0.448676	0	-0.785087	0	-4.97264	436.651	64.5175	-0.178799	0.006	-0.835049	0	0.736566	0	0	0	0	0.00020805	0	-0.000117561	0	0	0
0.21	2.51241	306.414	-27.2268	-0.207855	0.006	-0.449149	0	-0.768036	0	-5.19837	441.411	65.9693	-0.177935	0.006	-0.835449	0	0.663702	0	0	0	0	0.00020805	0	-0.000117561	0	0	0
0.22	2.92038	300.673	-26.3432	-0.20885	0.006	-0.449675	0	-0.74855	0	-5.41328	445.815	67.3351	-0.177106	0.006	-0.835817	0	0.596842	0	0	0	0	0.00020805	0	-0.000117561	0	0	0
0.23	3.3466	295.197	-25.4778	-0.209954	0.006	-0.45025	0	-0.726261	0	-5.61224	449.831	68.6053	-0.176323	0.006	-0.836148	0	0.536775	0	0	0	0	0.00020805	0	-0.000117561	0	0	0
0.24	3.7728	290.03	-24.64	-0.211143	0.006	-0.450864	0	-0.700774	0	-5.7929	453.432	69.7723	-0.175589	0.006	-0.836438	0	0.48391	0	0	0	0	0.00020805	0	-0.000117561	0	0	0
0.25	4.17842	285.222	-23.8395	-0.212387	0.006	-0.451511	0	-0.671604	0	-5.95621	456.591	70.8298	-0.174909	0.006	-0.836685	0	0.438396	0	0	0	0	0.00020805	0	-0.000117561	0	0	0
0.26	4.54066	280.826	-23.0856	-0.213652	0.006	-0.452178	0	-0.638374	0	-6.1061	459.287	71.7737	-0.174281	0.006	-0.836886	0	0.400185	0	0	0	0	0.00020805	0	-0.000117561	0	0	0
0.27	4.83516	276.897	-22.3876	-0.214895	0.006	-0.452853	0	-0.600937	0	-6.2487	461.503	72.6027	-0.173699	0.006	-0.83704	0	0.369041	0	0	0	0	0.00020805	0	-0.000117561	0	0	0
0.28	5.03777	273.481	-21.7535	-0.216073	0.006	-0.453521	0	-0.559437	0	-6.39137	463.227	73.3186	-0.173155	0.006	-0.837151	0	0.344671	0	0	0	0	0.00020805	0	-0.000117561	0	0	0
0.29	5.12874	270.613	-21.1894	-0.217139	0.006	-0.454166	0	-0.514371	0	-6.54183	464.453	73.9262	-0.172637	0.006	-0.837222	0	0.326751	0	0	0	0	0.00020805	0	-0.000117561	0	0	0
0.3	5.09796	268.308	-20.6981	-0.218054	0.006	-0.454774	0	-0.466642	0	-6.70736	465.178	74.4325	-0.17213	0.006	-0.837258	0	0.314947	0	0	0	0	0.00020805	0	-0.000117561	0	0	0
0.31	4.94906	266.564	-20.2786	-0.218794	0.006	-0.455334	0	-0.417526	0	-6.89454	465.396	74.8455	-0.171618	0.006	-0.837266	0	0.308883	0	0	0	0	0.00020805	0	-0.000117561	0	0	0
0.32	4.69909	265.362	-19.9263	-0.219352	0.006	-0.455838	0	-0.368526	0	-7.10945	465.104	75.1723	-0.171084	0.006	-0.837252	0	0.30818	0	0	0	0	0.00020805	0	-0.000117561	0	0	0
0.33	4.37391	264.678	-19.6347	-0.219733	0.006	-0.456281	0	-0.321138	0	-7.35693	464.29	75.4183	-0.17051	0.006	-0.837225	0	0.312553	0	0	0	0	0.00020805	0	-0.000117561	0	0	0
0.34	4.00355	264.485	-19.3975	-0.219955	0.006	-0.456665	0	-0.27674	0	-7.63947	462.936	75.586	-0.16988	0.006	-0.837189	0	0.321943	0	0	0	0	0.00020805	0	-0.000117561	0	0	0
